<svg width="253" height="57" viewBox="0 0 253 57" fill="none" xmlns="http://www.w3.org/2000/svg">
<path fill-rule="evenodd" clip-rule="evenodd" d="M80.5832 50.2019L80.5928 50.1968C84.2607 48.226 86.7309 45.2399 87.8963 41.3108C89.0376 37.6205 89.5662 32.5665 89.5662 26.259C89.5662 19.2872 88.8982 13.8573 87.4052 10.1753C85.875 6.353 83.2759 3.66656 79.6078 2.34668C76.2457 1.12033 71.3768 0.570976 65.1742 0.570976H49.5502H47.5502V2.57098V50.955V52.955H49.5502H65.1742C71.7567 52.955 76.9783 52.1136 80.5832 50.2019ZM87.5662 26.259C87.5662 32.499 87.0382 37.323 85.9822 40.731C84.9742 44.139 82.8622 46.707 79.6462 48.435C76.4782 50.115 71.6542 50.955 65.1742 50.955H51.5502H49.5502V48.955V4.57098V2.57098H51.5502H65.1742C71.3182 2.57098 75.9022 3.12297 78.9262 4.22697C81.9982 5.33097 84.2062 7.56298 85.5502 10.923C86.8942 14.235 87.5662 19.347 87.5662 26.259ZM71.6687 18.7212L71.6708 18.7288L71.6729 18.7365C72.0296 20.0047 72.2462 22.0411 72.2462 24.963C72.2462 28.616 72.0544 31.325 71.7055 33.1568C71.3907 34.8094 70.7437 35.9225 69.8707 36.6736C69.0925 37.2981 67.6317 37.795 65.1022 37.795H64.3662V15.731H65.1022C67.6302 15.731 69.1863 16.0878 70.0349 16.5593L70.06 16.5733L70.0856 16.5865C70.821 16.9678 71.3634 17.602 71.6687 18.7212ZM65.1022 39.795C67.8382 39.795 69.8542 39.267 71.1502 38.211C72.4462 37.107 73.2862 35.547 73.6702 33.531C74.0542 31.515 74.2462 28.659 74.2462 24.963C74.2462 21.987 74.0302 19.731 73.5982 18.195C73.1662 16.611 72.3022 15.483 71.0062 14.811C69.7102 14.091 67.7422 13.731 65.1022 13.731H64.3662H62.3662V15.731V37.795V39.795H64.3662H65.1022ZM97.2269 34.955H102.447V49.955H97.2269V34.955ZM97.2569 28.985H102.477V33.995H97.2569V28.985ZM116.124 50.345C114.004 50.345 112.434 49.705 111.414 48.425C110.394 47.145 109.884 45.155 109.884 42.455C109.884 40.315 110.154 38.675 110.694 37.535C111.234 36.375 111.984 35.595 112.944 35.195C113.904 34.775 115.134 34.565 116.634 34.565C117.234 34.565 117.904 34.625 118.644 34.745C119.384 34.865 120.354 35.065 121.554 35.345L121.434 39.425C119.574 39.285 118.414 39.215 117.954 39.215C117.174 39.215 116.584 39.315 116.184 39.515C115.784 39.695 115.514 40.005 115.374 40.445C115.234 40.885 115.164 41.525 115.164 42.365C115.164 43.265 115.234 43.955 115.374 44.435C115.534 44.895 115.814 45.225 116.214 45.425C116.614 45.605 117.194 45.695 117.954 45.695L121.404 45.485L121.554 49.595C119.294 50.095 117.484 50.345 116.124 50.345ZM134.598 50.345C133.358 50.345 132.388 50.155 131.688 49.775C130.988 49.375 130.488 48.755 130.188 47.915C129.888 47.075 129.738 45.935 129.738 44.495V39.365H128.208V34.955H129.738V31.055H134.958V34.955H137.928V39.365H134.958V44.825C134.958 45.425 135.178 45.705 135.618 45.665L137.658 45.695L137.838 49.805C136.978 50.025 136.338 50.165 135.918 50.225C135.518 50.305 135.078 50.345 134.598 50.345ZM145.45 34.955H150.67V49.955H145.45V34.955ZM145.48 28.985H150.7V33.995H145.48V28.985ZM165.247 50.345C163.807 50.345 162.537 50.005 161.437 49.325C160.357 48.645 159.517 47.695 158.917 46.475C158.337 45.255 158.047 43.875 158.047 42.335C158.047 40.835 158.337 39.505 158.917 38.345C159.497 37.165 160.327 36.245 161.407 35.585C162.487 34.905 163.767 34.565 165.247 34.565C166.727 34.565 168.007 34.895 169.087 35.555C170.187 36.215 171.027 37.135 171.607 38.315C172.187 39.475 172.477 40.815 172.477 42.335C172.477 43.895 172.177 45.285 171.577 46.505C170.997 47.705 170.157 48.645 169.057 49.325C167.957 50.005 166.687 50.345 165.247 50.345ZM165.247 45.965C165.767 45.965 166.227 45.665 166.627 45.065C167.027 44.445 167.227 43.535 167.227 42.335C167.227 41.235 167.037 40.395 166.657 39.815C166.277 39.235 165.807 38.945 165.247 38.945C164.687 38.945 164.217 39.235 163.837 39.815C163.477 40.395 163.297 41.235 163.297 42.335C163.297 43.535 163.487 44.445 163.867 45.065C164.267 45.665 164.727 45.965 165.247 45.965ZM179.942 34.955H185.132V35.645C185.772 35.245 186.342 34.965 186.842 34.805C187.342 34.645 187.882 34.565 188.462 34.565C190.302 34.565 191.632 35.185 192.452 36.425C193.272 37.645 193.682 39.395 193.682 41.675V49.955H188.462V41.855C188.462 40.935 188.322 40.265 188.042 39.845C187.782 39.425 187.292 39.215 186.572 39.215H186.242C186.062 39.215 185.772 39.265 185.372 39.365H185.162V49.955H179.942V34.955ZM205.805 50.345C204.145 50.345 202.905 49.925 202.085 49.085C201.285 48.225 200.885 46.925 200.885 45.185C200.885 43.525 201.325 42.365 202.205 41.705C203.105 41.025 204.555 40.635 206.555 40.535L208.775 40.415V39.725C208.775 39.385 208.685 39.175 208.505 39.095C208.345 38.995 207.995 38.945 207.455 38.945L204.755 39.005C203.035 39.085 202.115 39.105 201.995 39.065L201.875 35.555C204.035 34.895 206.135 34.565 208.175 34.565C210.235 34.565 211.715 34.975 212.615 35.795C213.515 36.595 213.965 37.905 213.965 39.725V45.005C213.985 45.225 214.005 45.475 214.025 45.755C214.045 46.015 214.085 46.195 214.145 46.295C214.205 46.375 214.315 46.435 214.475 46.475L214.325 50.345C213.085 50.345 212.155 50.285 211.535 50.165C210.935 50.065 210.275 49.815 209.555 49.415C208.315 50.035 207.065 50.345 205.805 50.345ZM207.005 46.175C207.325 46.175 207.815 46.125 208.475 46.025L208.775 45.995V43.925L207.185 44.045C206.845 44.085 206.575 44.205 206.375 44.405C206.175 44.605 206.075 44.885 206.075 45.245C206.075 45.865 206.385 46.175 207.005 46.175ZM222.403 34.955H227.593V36.245C229.333 35.345 230.773 34.785 231.913 34.565V39.815C231.293 39.955 230.523 40.085 229.603 40.205C229.443 40.225 228.943 40.305 228.103 40.445L227.623 40.535V49.955H222.403V34.955ZM244.253 49.955H241.013L237.713 34.955H242.813L244.853 45.545H245.363L247.373 34.955H252.473L247.853 56.015H242.783L244.253 49.955ZM4.848 50.877C4.08 50.877 3.48 50.749 3.048 50.493C2.616 50.237 2.304 49.805 2.112 49.197C1.92 48.573 1.824 47.693 1.824 46.557V39.669H0V38.613H1.824V34.797H2.976V38.613H7.176V39.669H2.976V45.741C2.976 46.845 3.016 47.669 3.096 48.213C3.176 48.741 3.352 49.141 3.624 49.413C3.912 49.685 4.376 49.821 5.016 49.821L7.296 49.629L7.392 50.637C6.272 50.797 5.424 50.877 4.848 50.877ZM9.40144 33.189H10.6014V39.333C11.9614 38.709 13.3134 38.397 14.6574 38.397C15.7134 38.397 16.5214 38.581 17.0814 38.949C17.6414 39.301 18.0334 39.901 18.2574 40.749C18.4814 41.581 18.5934 42.781 18.5934 44.349V50.613H17.3934V44.397C17.3934 43.021 17.3134 41.989 17.1534 41.301C17.0094 40.613 16.7294 40.133 16.3134 39.861C15.8974 39.589 15.2654 39.453 14.4174 39.453C13.3614 39.453 12.2574 39.677 11.1054 40.125L10.6014 40.317V50.613H9.40144V33.189ZM26.52 50.829C24.728 50.829 23.464 50.357 22.728 49.413C22.008 48.469 21.648 46.973 21.648 44.925C21.648 42.701 22.04 41.061 22.824 40.005C23.624 38.933 24.872 38.397 26.568 38.397C28.136 38.397 29.296 38.861 30.048 39.789C30.8 40.701 31.176 42.133 31.176 44.085L31.152 45.093H22.848C22.832 46.245 22.944 47.165 23.184 47.853C23.424 48.525 23.832 49.021 24.408 49.341C25 49.645 25.816 49.797 26.856 49.797C27.288 49.797 27.792 49.789 28.368 49.773C28.96 49.741 29.504 49.701 30 49.653L30.72 49.581L30.768 50.565C29.104 50.741 27.688 50.829 26.52 50.829ZM29.976 44.085C29.976 42.421 29.704 41.229 29.16 40.509C28.616 39.773 27.752 39.405 26.568 39.405C25.336 39.405 24.408 39.789 23.784 40.557C23.16 41.309 22.84 42.485 22.824 44.085H29.976Z" fill="#161617"/>
</svg>
