<svg width="1116" height="515" viewBox="0 0 1116 515" fill="none" xmlns="http://www.w3.org/2000/svg">
<path fill-rule="evenodd" clip-rule="evenodd" d="M0 517.548H47.1832C143.68 517.548 221.906 439.322 221.906 342.825C221.906 246.328 143.68 168.103 47.1832 168.103H0V517.548Z" fill="#86D1FF"/>
<rect x="189.919" y="17.3349" width="64.9724" height="500.213" fill="#C5D7FD"/>
<mask id="path-3-inside-1" fill="white">
<path fill-rule="evenodd" clip-rule="evenodd" d="M888.269 0.483276L854.637 5.27699L1016.35 276.273L1019.53 517.693L1116 517.39L1110.51 100.281L1014.04 100.584L1015.53 213.739L888.269 0.483276Z"/>
</mask>
<path d="M854.637 5.27699L853.226 -4.62296L838.35 -2.50257L846.05 10.4013L854.637 5.27699ZM888.269 0.483276L896.857 -4.64103L893.447 -10.3557L886.858 -9.41667L888.269 0.483276ZM1016.35 276.273L1026.35 276.141L1026.31 273.456L1024.94 271.149L1016.35 276.273ZM1019.53 517.693L1009.53 517.825L1009.66 527.724L1019.56 527.693L1019.53 517.693ZM1116 517.39L1116.03 527.39L1126.13 527.358L1126 517.258L1116 517.39ZM1110.51 100.281L1120.51 100.149L1120.38 90.2495L1110.48 90.2806L1110.51 100.281ZM1014.04 100.584L1014 90.584L1003.9 90.6158L1004.04 100.716L1014.04 100.584ZM1015.53 213.739L1006.94 218.863L1026.02 250.832L1025.53 213.608L1015.53 213.739ZM856.048 15.1769L889.681 10.3832L886.858 -9.41667L853.226 -4.62296L856.048 15.1769ZM1024.94 271.149L863.225 0.15268L846.05 10.4013L1007.76 281.397L1024.94 271.149ZM1029.53 517.561L1026.35 276.141L1006.35 276.405L1009.53 517.825L1029.53 517.561ZM1115.97 507.39L1019.5 507.693L1019.56 527.693L1116.03 527.39L1115.97 507.39ZM1100.51 100.412L1106 517.521L1126 517.258L1120.51 100.149L1100.51 100.412ZM1014.07 110.584L1110.54 110.281L1110.48 90.2806L1014 90.584L1014.07 110.584ZM1025.53 213.608L1024.04 100.452L1004.04 100.716L1005.53 213.871L1025.53 213.608ZM879.682 5.60758L1006.94 218.863L1024.11 208.615L896.857 -4.64103L879.682 5.60758Z" fill="#C5D7FD" mask="url(#path-3-inside-1)"/>
<rect x="389.835" y="237.992" width="259.89" height="279.556" fill="#C5D7FD"/>
<path fill-rule="evenodd" clip-rule="evenodd" d="M256.252 187.213C248.808 187.213 242.773 193.248 242.773 200.692C242.773 208.137 248.808 214.171 256.252 214.171H359.017L316.418 517.548H408.064L365.466 214.171H468.231C475.675 214.171 481.71 208.137 481.71 200.692C481.71 193.248 475.675 187.213 468.231 187.213H256.252Z" fill="#161617"/>
<ellipse cx="645.591" cy="193.063" rx="44.9809" ry="44.9287" fill="#86D1FF"/>
<path fill-rule="evenodd" clip-rule="evenodd" d="M690.572 181.628H705.566V203.04L739.156 260.785V181.628H754.149V294.355H739.156V270.494L705.566 212.749V294.355H690.572V181.628Z" fill="#161617"/>
<path fill-rule="evenodd" clip-rule="evenodd" d="M925.598 580.483L739.384 268.942L553.17 580.483H925.598ZM788.424 468.656L739.384 388.407L690.344 468.656H788.424Z" fill="#86D1FF"/>
<path fill-rule="evenodd" clip-rule="evenodd" d="M867.982 246.408L813.991 294.48L857.045 342.723V263.006V260.006H860.045H880.118L867.982 246.408ZM884.139 260.006L870.223 244.413L868.225 242.174L865.985 244.169L811.994 292.241L809.753 294.236L811.75 296.474L857.045 347.228V515.691V518.691H860.045H946.653H949.653V515.691V450.997L1010.07 518.691H1014.09L949.653 446.492V395.565C952.199 395.701 954.771 395.77 957.367 395.77C971.218 395.77 984.402 393.807 996.364 390.263L1110.98 518.691H1115L999.512 389.284C1032.93 378.41 1056.04 355.006 1056.04 327.888C1056.04 290.398 1011.86 260.006 957.367 260.006C954.771 260.006 952.199 260.075 949.653 260.21V260.006H946.653H884.139ZM882.795 263.006H860.045V316.619C864.013 300.283 876.461 285.923 894.17 275.752L882.795 263.006ZM896.861 274.261L886.816 263.006H928.268C916.758 265.446 906.148 269.295 896.861 274.261ZM946.653 443.13V395.374C922.361 393.57 900.712 385.701 884.97 374.013L946.653 443.13ZM864.745 351.35C862.652 347.442 861.067 343.364 860.045 339.156V346.084L864.745 351.35ZM860.045 350.59V515.691H946.653V447.636L860.045 350.59Z" fill="#161617"/>
<mask id="path-11-inside-2" fill="white">
<path fill-rule="evenodd" clip-rule="evenodd" d="M405.366 197.45C402.459 198.711 399.554 200.025 396.655 201.392C300.447 246.755 246.036 333.424 275.124 394.972C304.212 456.52 405.785 469.64 501.993 424.277C502.031 424.259 502.069 424.241 502.107 424.223C484.102 440.42 462.65 454.8 438.391 466.238C342.183 511.602 238.262 493.511 206.276 425.831C174.29 358.152 226.352 266.513 322.56 221.15C350.154 208.139 378.382 200.348 405.366 197.45Z"/>
</mask>
<path d="M396.655 201.392L392.382 192.351L396.655 201.392ZM405.366 197.45L409.354 206.62L404.292 187.51L405.366 197.45ZM502.107 424.223L508.802 431.654L497.834 415.182L502.107 424.223ZM400.928 210.433C403.733 209.11 406.543 207.839 409.354 206.62L401.378 188.279C398.375 189.582 395.376 190.939 392.382 192.351L400.928 210.433ZM284.169 390.707C271.58 364.072 276.475 330.725 297.378 297.429C318.211 264.246 354.288 232.424 400.928 210.433L392.382 192.351C342.814 215.723 303.581 249.918 280.428 286.797C257.346 323.563 249.579 364.324 266.079 399.237L284.169 390.707ZM497.72 415.236C451.08 437.227 403.555 444.826 364.665 439.802C325.644 434.762 296.757 417.343 284.169 390.707L266.079 399.237C282.579 434.149 319.022 454.065 362.111 459.63C405.332 465.213 456.697 456.69 506.265 433.318L497.72 415.236ZM497.834 415.182C497.813 415.192 497.793 415.202 497.774 415.211C497.754 415.22 497.737 415.228 497.72 415.236L506.265 433.318C506.286 433.308 506.307 433.299 506.326 433.29C506.346 433.281 506.363 433.272 506.38 433.264L497.834 415.182ZM495.412 416.792C478.148 432.321 457.516 446.165 434.118 457.197L442.664 475.28C467.784 463.435 490.056 448.518 508.802 431.654L495.412 416.792ZM434.118 457.197C387.653 479.106 339.703 485.496 299.961 478.578C260.186 471.653 229.547 451.668 215.321 421.567L197.231 430.096C214.99 467.674 252.305 490.574 296.539 498.274C340.806 505.98 392.921 498.734 442.664 475.28L434.118 457.197ZM215.321 421.567C201.094 391.465 205.118 355.136 225.045 320.061C244.955 285.016 280.367 252.1 326.833 230.191L318.287 212.108C268.544 235.563 229.822 271.147 207.645 310.183C185.485 349.188 179.471 392.519 197.231 430.096L215.321 421.567ZM326.833 230.191C353.45 217.64 380.6 210.164 406.441 207.389L404.292 187.51C376.164 190.531 346.857 198.637 318.287 212.108L326.833 230.191Z" fill="#86D1FF" mask="url(#path-11-inside-2)"/>
</svg>
