<svg id="svg" version="1.1" width="400" height="576" viewBox="0 0 400 576" xmlns="http://www.w3.org/2000/svg" xmlns:xlink="http://www.w3.org/1999/xlink" ><g id="svgg"><path id="path0" d="M0.000 288.000 L 0.000 576.000 200.000 576.000 L 400.000 576.000 400.000 288.000 L 400.000 0.000 200.000 0.000 L 0.000 0.000 0.000 288.000 M396.000 288.000 L 396.000 572.000 200.000 572.000 L 4.000 572.000 4.000 288.000 L 4.000 4.000 200.000 4.000 L 396.000 4.000 396.000 288.000 " stroke="none" fill="#fcfcfc" fill-rule="evenodd"></path><path id="path1" d="M199.258 36.404 C 192.502 41.298,182.991 59.165,180.734 71.200 C 180.549 72.190,180.180 74.170,179.916 75.600 C 179.298 78.938,179.323 103.417,179.963 121.200 C 180.219 128.350,180.600 139.690,180.808 146.400 C 181.287 161.882,181.869 178.309,182.445 192.600 C 183.419 216.801,183.015 248.657,181.604 259.000 C 181.394 260.540,181.046 263.150,180.831 264.800 C 180.615 266.450,180.334 268.340,180.206 269.000 C 180.078 269.660,179.785 271.190,179.554 272.400 C 178.570 277.565,177.794 280.764,175.918 287.380 C 174.533 292.265,171.934 299.820,170.821 302.200 C 170.615 302.640,169.806 304.419,169.024 306.154 C 168.242 307.889,166.927 310.062,166.101 310.984 C 151.280 327.525,138.796 351.902,134.342 373.000 C 134.109 374.100,133.745 375.720,133.532 376.600 C 131.370 385.525,129.702 407.090,130.982 409.565 C 131.986 411.508,132.686 411.600,146.400 411.600 C 163.184 411.600,162.061 412.215,162.469 402.800 C 162.617 399.390,162.919 395.430,163.141 394.000 C 163.587 391.123,164.283 386.284,164.780 382.600 C 165.866 374.562,168.479 364.996,171.992 356.200 C 175.656 347.024,181.738 336.832,188.341 328.800 C 192.533 323.701,201.056 315.600,202.227 315.600 C 203.403 315.600,212.740 325.575,217.926 332.371 C 230.670 349.072,238.130 367.339,240.806 388.400 C 241.016 390.050,241.378 392.750,241.610 394.400 C 241.843 396.050,242.161 400.019,242.317 403.220 C 242.754 412.202,241.568 411.600,258.824 411.600 C 272.092 411.600,272.817 411.502,273.818 409.565 C 274.881 407.509,273.812 390.088,272.065 381.000 C 271.853 379.900,271.489 378.010,271.254 376.800 C 271.020 375.590,270.449 373.160,269.986 371.400 C 269.523 369.640,268.986 367.570,268.792 366.800 C 264.654 350.359,251.345 325.770,239.382 312.465 C 238.402 311.375,237.600 310.379,237.600 310.253 C 237.600 310.127,237.131 308.983,236.557 307.712 C 233.691 301.361,232.784 299.059,231.073 293.800 C 228.419 285.641,226.671 278.977,225.199 271.400 C 224.942 270.080,224.644 268.640,224.537 268.200 C 224.429 267.760,224.168 266.140,223.956 264.600 C 223.745 263.060,223.398 260.540,223.186 259.000 C 221.070 243.618,220.528 223.988,221.558 200.000 C 221.817 193.950,222.197 184.140,222.400 178.200 C 222.604 172.260,222.965 161.730,223.203 154.800 C 223.441 147.870,223.798 136.800,223.997 130.200 C 224.195 123.600,224.570 112.530,224.830 105.600 C 225.650 83.741,225.411 79.094,222.933 68.800 C 220.295 57.838,214.267 46.115,207.679 39.130 C 203.631 34.839,202.102 34.344,199.258 36.404 M53.304 84.292 C 52.810 84.382,52.135 84.842,51.804 85.316 C 51.268 86.081,51.200 106.151,51.200 264.260 L 51.200 442.342 52.254 443.171 C 53.304 443.997,53.445 444.000,93.438 444.000 L 133.568 444.000 134.031 445.700 C 142.925 478.368,161.180 503.824,189.928 523.647 C 201.289 531.480,201.999 531.651,208.219 528.036 C 239.597 509.800,262.284 480.198,270.709 446.500 L 271.334 444.000 311.498 444.000 L 351.662 444.000 352.831 442.831 L 354.000 441.662 353.999 264.531 C 353.999 96.688,353.962 87.328,353.299 86.020 C 351.598 82.664,348.142 83.776,337.470 91.114 C 329.644 96.494,324.423 100.814,317.059 108.000 C 296.518 128.044,280.666 155.140,273.357 182.700 C 273.051 183.855,272.522 185.835,272.183 187.100 C 271.844 188.365,271.376 190.300,271.143 191.400 C 270.910 192.500,270.555 194.120,270.355 195.000 C 268.746 202.062,267.432 211.684,266.395 224.000 C 265.890 229.992,264.808 240.252,263.990 246.800 C 263.784 248.450,263.430 251.420,263.204 253.400 C 262.796 256.974,262.466 259.687,261.598 266.600 C 260.817 272.824,260.391 276.483,260.015 280.200 C 259.815 282.180,259.448 285.600,259.200 287.800 C 257.866 299.612,257.211 308.473,257.615 309.228 C 258.408 310.711,259.202 310.935,264.007 311.032 C 274.977 311.253,285.239 318.851,287.210 328.211 C 288.076 332.325,288.080 333.382,287.247 336.719 C 285.737 342.762,282.802 346.124,274.160 351.702 C 268.910 355.091,268.819 355.348,270.746 361.400 C 271.377 363.380,272.265 366.440,272.720 368.200 C 273.493 371.191,273.725 372.175,274.824 377.100 C 276.183 383.198,276.735 383.576,281.750 381.846 C 298.030 376.232,310.077 364.358,315.372 348.706 C 317.321 342.945,318.101 338.214,318.127 332.000 C 318.197 315.212,308.054 297.477,293.576 289.072 C 290.012 287.003,289.875 286.697,290.385 281.943 C 291.175 274.581,291.591 271.042,292.802 261.400 C 293.531 255.594,293.957 252.048,294.412 248.000 C 294.647 245.910,295.001 242.760,295.199 241.000 C 295.597 237.463,296.199 231.618,296.826 225.200 C 297.862 214.590,298.718 208.122,299.619 204.100 C 299.829 203.165,300.192 201.545,300.427 200.500 C 303.208 188.109,309.077 171.975,314.287 162.400 C 317.110 157.212,322.484 148.804,322.837 149.023 C 323.053 149.156,323.200 203.397,323.200 282.824 L 323.200 416.400 273.900 416.413 C 219.888 416.427,223.531 416.253,222.785 418.852 C 222.239 420.755,222.288 440.358,222.842 441.949 C 223.504 443.847,224.156 444.000,231.574 444.000 C 239.477 444.000,238.898 443.506,237.350 448.925 C 233.904 460.983,225.292 476.816,217.952 484.586 C 217.732 484.819,217.629 470.925,217.694 449.578 L 217.800 414.183 219.084 411.574 C 221.577 406.511,226.748 402.427,233.931 399.847 C 235.544 399.268,237.194 398.617,237.599 398.400 C 238.551 397.891,239.355 395.443,239.022 394.070 C 238.879 393.482,238.593 391.560,238.387 389.800 C 237.867 385.367,237.407 382.666,236.041 376.033 C 234.995 370.948,233.626 370.176,228.573 371.820 C 222.430 373.819,215.945 377.649,206.700 384.742 L 202.431 388.017 199.959 386.108 C 198.599 385.059,196.477 383.451,195.243 382.536 C 194.009 381.620,192.550 380.531,192.000 380.115 C 185.510 375.209,174.598 370.262,171.812 370.961 C 170.608 371.263,169.365 373.510,168.741 376.507 C 167.812 380.974,166.885 386.678,166.417 390.800 C 166.230 392.450,165.957 394.250,165.811 394.800 C 165.308 396.692,166.955 398.332,170.800 399.768 C 178.329 402.579,183.269 406.419,185.800 411.426 L 187.000 413.800 187.106 448.968 L 187.213 484.136 186.355 483.368 C 182.743 480.137,174.899 467.571,171.441 459.474 C 169.702 455.404,166.400 445.626,166.400 444.549 C 166.400 444.105,167.736 444.000,173.418 444.000 C 180.336 444.000,180.450 443.986,181.418 443.018 L 182.400 442.036 182.400 430.262 C 182.400 419.266,182.349 418.426,181.635 417.544 L 180.871 416.600 131.235 416.495 L 81.600 416.391 81.600 282.819 C 81.600 204.815,81.749 149.155,81.957 149.026 C 82.275 148.830,84.969 152.929,89.332 160.243 C 94.470 168.859,101.727 187.956,104.058 199.000 C 104.291 200.100,104.645 201.720,104.845 202.600 C 106.073 207.992,106.841 213.554,108.020 225.600 C 108.689 232.442,109.146 236.790,109.575 240.400 C 109.798 242.270,110.169 245.510,110.400 247.600 C 111.059 253.562,111.909 260.718,112.798 267.800 C 113.744 275.331,113.957 277.104,114.335 280.600 C 114.549 282.580,114.838 284.482,114.977 284.827 C 115.379 285.825,113.913 287.306,109.707 290.149 C 98.256 297.890,89.747 310.393,87.621 322.600 C 87.353 324.140,86.951 326.040,86.728 326.823 C 86.292 328.354,86.514 334.916,87.148 339.200 C 90.090 359.108,103.176 374.747,122.770 381.769 C 127.016 383.291,129.593 382.211,129.599 378.906 C 129.599 378.414,129.777 377.244,129.994 376.306 C 131.643 369.177,132.265 366.748,133.669 361.965 C 135.745 354.895,135.702 354.766,130.180 351.400 C 123.133 347.105,118.500 341.714,117.558 336.712 C 117.339 335.550,117.064 334.142,116.947 333.583 C 116.188 329.964,119.030 323.033,122.869 319.134 C 128.562 313.353,133.320 311.194,140.720 311.035 C 145.343 310.936,145.714 310.868,146.627 309.955 L 147.602 308.980 147.190 303.790 C 146.777 298.571,146.390 294.624,145.603 287.600 C 145.369 285.510,145.002 282.090,144.788 280.000 C 144.355 275.765,143.850 271.489,143.182 266.400 C 142.937 264.530,142.578 261.560,142.385 259.800 C 142.191 258.040,141.840 255.160,141.603 253.400 C 140.761 247.122,139.306 233.588,138.400 223.600 C 137.751 216.446,137.227 211.516,136.805 208.600 C 136.068 203.501,135.064 197.715,134.445 195.000 C 134.245 194.120,133.891 192.500,133.658 191.400 C 127.158 160.622,110.571 130.372,88.137 108.380 C 74.161 94.681,57.926 83.453,53.304 84.292 " stroke="none" fill="#040404" fill-rule="evenodd"></path><path id="path2" d="" stroke="none" fill="#c010080" fill-rule="evenodd"></path><path id="path3" d="" stroke="none" fill="#408480" fill-rule="evenodd"></path><path id="path4" d="" stroke="none" fill="#400484" fill-rule="evenodd"></path></g></svg>