<?xml version="1.0" encoding="UTF-8"?>
<!DOCTYPE svg PUBLIC "-//W3C//DTD SVG 1.1//EN" "http://www.w3.org/Graphics/SVG/1.1/DTD/svg11.dtd">
<svg version="1.1" xmlns="http://www.w3.org/2000/svg" xmlns:xlink="http://www.w3.org/1999/xlink" x="0" y="0" width="702" height="880" viewBox="0, 0, 702, 880">
  <defs>
    <clipPath id="Clip_1">
      <path d="M0,880 L701.17,880 L701.17,0.728 L0,0.728 z"/>
    </clipPath>
  </defs>
  <g id="Layer_1">
    <g clip-path="url(#Clip_1)">
      <path d="M534.109,651.961 C515.161,653.952 496.213,655.943 477.265,657.934 C475.196,657.545 474.389,655.819 473.434,654.277 C470.014,648.758 466.755,643.142 463.218,637.691 C460.577,633.62 461.045,631.956 465.689,630.143 C475.16,626.446 484.455,622.398 493.507,617.765 C534.56,596.75 565.367,565.562 586.385,524.572 C590.648,516.258 594.306,507.702 597.706,499.014 C600.608,491.598 600.721,491.364 608.616,491.62 C619.336,491.969 629.099,489.384 637.677,482.929 C648.392,474.867 653.245,463.312 654.453,450.606 C655.596,438.578 656.034,426.309 651.188,414.638 C646.171,402.556 637.869,394.988 624.325,394.06 C617.316,393.58 617.173,393.476 616.818,386.574 C614.988,351.046 607.373,316.734 595.408,283.309 C591.615,272.713 591.147,272.422 580.459,275.991 C579.194,276.414 578.032,277.095 576.735,277.439 C570.286,277.987 563.929,279.269 557.479,279.812 C555.493,279.979 553.536,280.453 551.608,279.583 C551.319,279.415 550.912,279.229 550.869,278.957 C549.609,270.921 543.677,269.942 537.018,269.032 C520.813,266.816 506.956,259.223 495.227,248.158 C465.576,220.183 449.304,185.387 443.963,145.227 C443.744,143.575 443.628,141.909 442.963,140.353 C441.676,137.342 439.273,136.106 436.151,136.422 C433.152,136.725 431.34,138.61 430.733,141.503 C430.252,143.797 430.301,146.169 430.648,148.471 C437.106,191.294 454.326,228.704 486.307,258.619 C491.427,263.409 497.287,267.258 503.211,270.999 C504.714,271.948 507.114,272.634 505.869,275.378 C503.452,276.727 501.017,275.966 498.596,275.422 C480.552,271.375 463.039,265.719 446.243,257.948 C441.885,255.932 437.163,256.175 432.621,255.323 C425.142,253.919 417.467,253.449 410.322,250.504 C408.264,243.066 402.433,241.943 395.806,241.014 C379.623,238.746 365.801,231.105 354.076,220.024 C324.576,192.145 308.436,157.47 303.007,117.528 C302.806,116.045 302.737,114.542 302.264,113.104 C301.262,110.062 299.186,108.383 295.965,108.394 C292.714,108.405 290.14,110.157 289.907,113.24 C289.483,118.834 285.939,120.148 281.408,121.289 C242.201,131.159 206.76,148.596 175.929,174.881 C153.156,194.297 134.84,217.446 120.315,243.593 C100.654,278.986 89.536,317.153 83.519,356.985 C82.224,365.557 81.177,374.126 81.51,382.819 C81.599,385.143 81.626,387.484 81.023,389.773 C80.365,392.272 79.138,393.814 76.178,393.761 C62.324,393.515 52.273,399.651 46.046,412.051 C45.377,413.381 44.641,414.733 43.002,415.156 C40.525,414.179 40.999,411.927 40.938,410.04 C40.337,391.604 39.946,373.134 41.03,354.736 C44.646,293.357 58.906,234.719 87.716,180.051 C101.279,154.316 117.877,130.717 137.432,109.093 C150.336,94.822 164.533,82.132 179.72,70.449 C181.065,69.31 183.258,68.969 183.319,66.607 C190.315,61.618 198.494,59.097 206.251,55.748 C218.031,50.663 230.116,46.353 242.517,42.992 C245.137,42.282 247.79,41.451 249.242,39.032 C251.497,35.273 255.041,33.955 258.947,32.668 C283.742,24.499 309.177,19.136 335.112,16.891 C390.383,12.107 444,18.704 495.442,40.815 C526.807,54.296 555.622,71.645 581.256,94.047 C595.422,106.427 608.373,120.148 619.601,135.355 C620.756,136.919 622.245,138.472 621.445,140.748 C618.772,141.755 617.646,139.455 616.091,138.172 C614.69,137.016 613.562,135.545 611.625,134.079 C611.861,179.157 589.726,204.367 544.278,209.787 C551.76,213.176 558.658,214.929 565.734,215.464 C585.388,216.948 604.105,213.204 622.075,205.067 C631.95,200.596 641.057,194.817 650.511,189.617 C653.203,190.968 653.651,193.817 654.688,196.173 C668.87,228.415 677.366,262.23 682.522,296.979 C687.499,330.522 688.392,364.289 687.389,398.073 C686.344,433.255 682.668,468.111 670.594,501.604 C658.076,536.331 641.541,568.816 618.272,597.644 C604.641,614.53 588.981,628.969 569.143,638.476 C561.652,642.066 553.87,644.245 545.694,644.926 C541.228,645.298 537.522,646.262 535.686,650.821 C535.437,651.438 534.756,651.744 534.109,651.961" fill="#C6986A"/>
      <path d="M621.314,140.712 C615.011,130.469 607.067,121.533 598.79,112.912 C552.343,64.539 495.367,35.506 430.131,22.221 C403.143,16.725 375.654,15.566 348.187,17.142 C316.537,18.958 285.645,25.223 255.503,35.086 C254.277,35.487 252.685,35.629 252.221,37.064 C250.512,42.341 246.007,43.499 241.437,44.736 C222.596,49.835 204.746,57.536 187.045,65.61 C185.713,66.218 184.516,67.123 183.256,67.89 C182.575,69.399 181.086,69.915 179.811,70.697 C170.876,76.499 161.589,81.727 152.789,87.757 C120.049,110.188 93.193,138.239 71.656,171.535 C42.965,215.89 26.923,264.621 20.338,316.798 C17.429,339.849 16.586,362.998 17.752,386.089 C20.144,433.464 28.598,479.709 47.751,523.467 C59.525,550.366 74.571,575.212 95.708,595.969 C99.779,599.968 99.831,599.946 102.328,594.607 C107.699,580.153 116.153,566.862 118.364,551.201 C118.977,546.853 118.629,543.057 116.282,539.281 C108.345,526.511 101.987,512.957 97.026,498.777 C95.83,495.359 93.854,494.087 90.375,494.158 C86.224,494.242 82.051,494.466 77.91,493.844 C67.508,492.281 58.668,487.671 51.269,480.223 C40.136,466.289 36.963,450.24 38.607,432.877 C38.983,428.906 39.043,424.901 40.087,421.018 C40.687,418.787 41.018,416.408 43.153,414.946 C47.645,404.556 54.268,396.395 65.865,393.619 C68.755,392.928 71.927,391.815 74.657,392.387 C80.063,393.52 80.025,390.295 80.106,386.862 C80.278,379.55 80.198,372.255 81.139,364.95 C85.648,329.967 94.263,296.14 108.698,263.865 C121.955,234.224 139.803,207.677 162.99,184.986 C196.337,152.351 236.278,131.353 281.36,119.912 C285.336,118.903 288.688,118.49 288.521,112.677 C288.41,108.81 292.22,106.605 296.472,106.876 C301.286,107.184 303.6,110.193 304.052,114.652 C304.707,121.107 305.631,127.504 307.117,133.819 C314.764,166.295 329.384,194.955 353.778,218.114 C367.177,230.835 382.966,238.796 401.566,240.774 C408.078,241.466 409.714,243.408 410.243,249.941 C410.52,255.037 406.306,258.536 399.908,258.04 C394.768,257.642 389.683,256.655 384.693,255.278 C357.661,247.818 338.138,230.318 321.941,208.364 C307.101,188.248 297.325,165.786 291.036,141.705 C289.525,135.918 289.246,135.686 283.52,137.231 C246.137,147.323 212.451,164.341 183.244,190.067 C162.222,208.583 145.748,230.495 132.574,255.076 C113.586,290.503 102.991,328.516 98.594,368.228 C95.462,396.522 97.699,424.715 103.452,452.601 C107.62,475.489 115.263,497.178 126.076,518.759 C144.488,482.625 174.554,466.741 213.407,465.543 C225.891,465.428 238.109,467.242 249.355,472.706 C266.893,481.227 274.32,496.47 275.41,515.169 C276.067,526.446 274.328,537.519 269.367,547.761 C263.343,560.196 253.959,568.123 239.36,567.976 C236.838,567.95 235.341,569.113 234.06,571.024 C228.185,579.794 221.06,587.417 213.095,594.338 C207.308,599.367 207.894,602.301 214.925,605.648 C244.429,619.693 275.626,627.228 308.032,630.704 C327.48,632.791 346.962,633.224 366.378,632.344 C414.21,630.178 460.158,620.547 501.526,594.784 C529.852,577.143 551.737,553.41 568.127,524.471 C580.765,502.108 589.163,478.212 593.967,453.011 C597.252,436.001 599.174,418.88 599.804,401.537 C601.291,360.557 592.289,321.609 578.118,283.555 C577.339,281.462 575.756,279.404 577.05,276.938 C581.076,272.943 586.591,273.295 591.554,272.18 C592.776,271.905 593.216,274.063 593.688,275.259 C603.167,299.305 609.814,324.121 614.197,349.59 C616.459,362.732 617.348,375.961 617.949,389.239 C618.018,390.752 617.374,392.525 620.291,392.472 C642.694,392.064 653.52,407.737 655.81,427.894 C657.138,439.583 657.083,451.455 653.117,462.958 C646.72,481.512 631.315,492.805 611.626,492.98 C601.509,493.069 601.465,493.052 597.847,502.384 C584.746,536.182 565.138,565.539 537.865,589.532 C517.012,607.877 493.141,621.203 467.177,630.897 C461.543,633 461.665,633.029 464.866,638.026 C469.082,644.609 473.139,651.293 477.265,657.934 C486.195,675.583 494.151,693.605 499.35,712.777 C514.728,769.486 507.861,823.404 479.696,874.859 C477.027,879.735 473.492,880.12 469.017,879.835 C464.582,879.553 464.22,875.905 463.134,872.839 C461.646,870.085 463.626,868.024 464.706,865.923 C471.574,852.564 477.796,838.947 482.046,824.494 C488.839,801.393 491.143,777.924 489.097,753.868 C486.7,725.688 478.199,699.407 465.8,674.26 C460.571,663.656 454.419,653.538 447.623,643.82 C445.47,640.742 443.142,639.778 439.577,640.868 C435.438,642.134 431.184,643.013 426.932,643.848 C423.995,644.425 422.301,646.098 421.537,649.015 C420.097,654.507 418.254,659.869 415.276,664.753 C413.962,666.906 414.323,668.41 416.572,669.65 C419.492,671.258 422.137,673.317 424.967,675.072 C429.858,678.104 432.093,682.442 431.497,688.128 C430.14,701.075 425.341,712.597 416.856,722.506 C412.867,727.165 412.788,727.217 416.143,732.341 C417.42,734.293 418.745,736.213 419.852,738.272 C424.225,746.404 422.563,751.479 414.062,754.882 C406.796,757.792 399.473,760.698 391.936,762.728 C384.097,764.839 379.655,769.233 377.016,776.994 C371.602,792.917 364.822,808.353 358.926,824.115 C358.459,825.363 357.962,826.603 357.37,827.797 C355.43,831.702 352.41,834.068 347.918,833.98 C343.541,833.894 340.962,831.35 339.396,827.435 C332.587,810.419 325.768,793.399 319.557,776.164 C316.956,768.949 313.224,764.328 305.521,762.349 C298.135,760.451 290.948,757.61 283.858,754.706 C276.126,751.538 273.783,746.326 278.22,739.265 C283.661,730.605 284.209,723.69 276.786,715.568 C270.937,709.169 268.943,700.268 267.282,691.67 C265.877,684.401 267.606,678.737 274.225,674.516 C280.615,670.441 280.434,670.119 277.941,662.828 C276.372,658.237 275.095,653.577 274.88,648.712 C274.754,645.884 273.272,644.745 270.686,643.997 C264.431,642.189 258.329,642.105 251.997,643.84 C234.782,648.558 218.169,655.085 201.19,660.44 C189.415,664.153 182.435,670.693 180.165,682.655 C179.704,685.084 178.664,687.417 177.808,689.765 C175.385,696.408 170.809,699.295 165.418,697.612 C159.889,695.887 157.717,690.598 160.095,683.6 C163.472,673.664 166.953,663.762 170.413,653.853 C175.959,637.967 181.484,622.074 186.934,606.155 C187.943,603.205 187.536,601.613 184.494,600.378 C167.823,593.608 151.25,586.601 134.659,579.639 C131.337,578.245 129.478,578.849 128.034,582.207 C113.532,615.939 100.084,650.024 94.25,686.535 C92.277,698.882 91.281,711.322 94.327,723.752 C96.389,732.165 101.123,738.138 109.204,741.243 C115.45,743.644 121.939,745.142 128.653,745.483 C154.187,746.78 179.15,742.985 203.869,737.032 C216.832,733.91 229.621,730.166 242.357,726.23 C250.384,723.749 255.264,726.677 256.583,735.118 C258.51,747.454 259.223,759.933 260.463,772.349 C263.044,798.187 265.591,824.025 269.071,849.763 C269.896,855.868 270.644,861.984 271.575,868.076 C271.815,869.648 272.514,871.369 271.07,872.804 C269.255,879.371 268.226,879.971 261.28,879.872 C255.623,879.792 255.087,875.596 254.505,871.696 C250.694,846.176 247.707,820.552 245.173,794.874 C243.669,779.636 242.069,764.406 240.695,749.155 C240.403,745.91 239.593,745.175 236.318,746.181 C211.157,753.915 185.592,759.906 159.342,762.406 C144.417,763.828 129.453,764.249 114.621,761.022 C88.884,755.422 76.407,740.6 75.207,714.422 C74.076,689.752 79.769,666.199 86.613,642.829 C88.666,635.819 91.043,628.897 93.475,622.006 C94.221,619.892 94.36,618.525 92.458,616.834 C59.125,587.205 37.763,549.879 23.154,508.302 C5.683,458.577 -1.043,407.182 0.129,354.68 C1.355,299.765 12.784,247.132 37.034,197.633 C71.933,126.395 125.585,74.735 198.352,42.667 C211.011,37.089 222.978,29.812 236.055,24.979 C277.289,9.742 319.762,1.167 363.831,0.746 C453.73,-0.113 532.24,29.35 598.545,89.968 C636.288,124.473 661.541,167.467 678.044,215.603 C693.537,260.794 701.771,307.288 701.129,355.183 C700.81,378.994 701.789,402.806 700.398,426.623 C697.479,476.614 681.862,522.646 657.501,565.957 C642.46,592.698 624.329,617.067 600.19,636.423 C584.749,648.804 567.646,657.632 547.538,659.539 C539.3,660.321 536.686,658.926 534.109,651.96 C535.458,645.346 539.842,643.961 546.117,643.458 C564.441,641.989 579.559,632.908 593.203,621.307 C621.444,597.294 640.511,566.597 656.106,533.514 C667.425,509.502 675.725,484.463 680.599,458.317 C683.071,445.051 684.092,431.625 684.988,418.212 C686.486,395.778 686.902,373.278 685.971,350.82 C683.724,296.594 674.538,243.792 652.184,193.861 C651.587,192.528 650.96,191.208 650.347,189.881 C648.638,189.145 648.138,187.46 647.391,186.008 C639.999,171.63 632.357,157.403 622.722,144.353 C621.931,143.283 621.183,142.157 621.314,140.712" fill="#6E4100"/>
      <path d="M271.07,872.804 C268.097,855.938 266.092,838.938 264.225,821.926 C261.85,800.282 259.674,778.617 257.433,756.958 C256.663,749.517 256.008,742.063 255.209,734.625 C254.496,727.991 249.981,725.02 243.601,727.116 C218.6,735.332 193.197,741.927 167.083,745.358 C150.395,747.55 133.613,748.647 116.925,745.055 C98.099,741.003 92.706,731.9 91.337,713.842 C89.819,693.816 94.361,674.456 99.688,655.354 C106.852,629.668 116.604,604.911 127.267,580.488 C128.973,576.581 130.612,576.35 134.225,577.899 C151.655,585.369 169.175,592.636 186.738,599.787 C189.576,600.942 189.959,602.015 188.953,604.862 C179.701,631.047 170.62,657.294 161.508,683.529 C160.747,685.72 159.8,687.919 160.334,690.327 C161.141,693.96 163.387,696.284 167.082,696.751 C171.203,697.273 174.311,695.505 175.749,691.558 C178.423,684.215 180.936,676.814 183.452,669.415 C184.171,667.3 185.053,665.644 187.388,664.71 C209.793,655.751 232.394,647.44 255.847,641.52 C262.531,639.833 268.275,642.579 274.426,643.481 C276.48,643.783 276.173,645.592 276.212,647.06 C276.413,654.498 278.196,661.568 281.615,668.14 C282.642,670.114 282.501,671.078 280.596,671.982 C279.849,672.335 279.177,672.849 278.483,673.307 C267.217,680.728 266.22,683.033 269.551,696.004 C272.153,706.142 276.497,715.476 283.944,723.013 C286.023,725.117 285.989,726.688 284.658,729.04 C282.447,732.947 280.461,736.99 278.523,741.043 C275.883,746.563 277.48,750.849 283.245,753.011 C292.587,756.514 301.995,759.846 311.437,763.072 C314.984,764.284 317.098,766.226 318.49,769.924 C325.519,788.605 332.946,807.136 340.129,825.76 C341.682,829.786 343.689,832.947 348.567,832.826 C353.382,832.707 355.373,829.475 356.909,825.493 C364.034,807.025 371.326,788.621 378.364,770.121 C379.61,766.845 381.477,765.039 384.767,763.928 C394.692,760.576 404.547,757.007 414.37,753.363 C421.453,750.736 422.948,746.281 419.124,739.69 C417.453,736.812 415.81,733.874 413.765,731.269 C411.295,728.124 411.337,726.093 414.406,722.988 C424.122,713.157 428.87,700.892 430.285,687.231 C430.749,682.755 429.092,679.452 425.397,677.064 C421.765,674.716 418.219,672.209 414.436,670.134 C412.256,668.938 411.516,668.212 413.109,665.803 C416.814,660.203 419.171,653.966 420.425,647.365 C420.967,644.512 422.415,643.215 425.342,642.745 C429.925,642.008 434.602,641.223 438.916,639.601 C443.965,637.704 446.429,639.388 449.288,643.605 C469.173,672.933 483.233,704.679 488.877,739.745 C495.359,780.007 489.323,818.576 471.557,855.321 C468.737,861.153 465.037,866.567 463.134,872.839 C455.167,872.832 447.2,872.824 439.233,872.817 C437.319,870.753 438.302,868.384 438.652,866.16 C445.266,824.2 449.334,781.938 453.665,739.707 C453.767,738.714 453.813,737.714 453.885,736.717 C454.322,730.727 452.203,727.1 448.107,726.815 C444.139,726.54 441.306,730.029 440.728,735.804 C436.879,774.235 433.102,812.674 427.597,850.915 C426.767,856.683 425.871,862.444 424.892,868.188 C424.601,869.891 424.813,871.969 422.703,872.883 C372.159,872.856 321.614,872.83 271.07,872.804" fill="#4576AD"/>
      <path d="M422.703,872.883 C428.091,839.921 432.154,806.793 435.332,773.55 C436.58,760.486 437.996,747.439 439.354,734.386 C440.009,728.091 443.77,724.311 448.678,724.959 C453.743,725.627 456.043,729.652 455.349,736.27 C452.558,762.87 450.034,789.501 446.982,816.072 C444.917,834.049 442.58,852.008 439.387,869.837 C439.213,870.808 439.279,871.823 439.233,872.817 C438.024,876.736 436.761,879.988 431.374,880 C425.993,880.012 423.33,878.023 422.703,872.883" fill="#6E4100"/>
    </g>
    <path d="M569.219,524.871 C557.617,546.784 541.873,565.301 522.843,581.061 C491.116,607.336 454.034,621.652 413.945,628.571 C361.481,637.625 309.254,636.436 257.558,622.884 C241.44,618.658 225.937,612.74 211.108,605.112 C206.613,602.8 205.88,598.32 209.795,595.217 C219.548,587.486 227.775,578.434 234.527,568.007 C235.254,566.886 235.854,565.89 237.608,566.117 C251.639,567.936 260.872,560.783 267.093,549.291 C276.607,531.719 277.502,500.502 262.527,484.232 C252.923,473.797 240.61,469.634 227.119,467.93 C222.509,467.348 217.845,467.193 213.205,466.843 C210.503,464.478 210.111,461.006 209.089,457.895 C205.596,447.266 199.838,438.2 192.17,429.982 C175.782,412.417 147.398,409.527 125.337,426.171 C117.053,432.42 110.879,440.331 105.885,449.306 C105.059,450.791 104.72,452.947 102.281,452.876 C98.384,436.806 96.595,420.441 96.217,403.969 C94.784,341.537 110.589,283.708 145.182,231.722 C179.188,180.617 227.946,150.137 286.837,134.913 C290.204,134.043 290.914,135.087 291.624,138.155 C298.405,167.45 311.044,193.974 330.408,217.036 C346.521,236.224 365.937,250.531 391.187,255.39 C393.796,255.892 396.451,256.162 399.093,256.476 C405.423,257.229 407.717,255.869 410.243,249.942 C420.99,251.831 431.738,253.662 442.549,255.206 C447.93,255.975 452.925,259.38 458.122,261.524 C472.094,267.289 486.602,271.306 501.325,274.588 C502.907,274.94 504.603,274.782 506.246,274.861 C508.717,273.431 510.753,275.141 512.775,275.97 C519.703,278.811 526.81,280.909 534.136,282.5 C540.512,283.885 546.243,283.687 551.125,278.826 C558.248,278.32 565.361,277.708 572.378,276.324 C574.047,275.995 575.64,275.595 577.05,276.938 C589.104,306.274 597.17,336.723 600.472,368.215 C603.487,396.962 601.386,425.602 595.087,453.872 C592.319,453.625 592.047,451.15 591.163,449.327 C586.979,440.706 581.844,432.785 574.342,426.662 C554.111,410.148 525.797,411.49 506.564,429.82 C502.342,433.843 498.29,438.014 495.029,442.893 C494.117,444.258 493.287,445.765 491.576,446.359 C490.532,446.54 489.69,446.062 488.838,445.548 C483.186,442.131 482.02,442.422 478.4,448.135 C478.049,448.689 477.692,449.232 477.229,449.705 C475.498,451.256 473.265,451.231 471.179,451.518 C467.296,452.051 463.449,452.59 460.205,455.062 C459.211,454.262 459.047,453.077 458.804,451.947 C458.336,449.763 457.134,448.332 454.836,448.072 C452.644,447.823 450.963,448.759 449.688,450.5 C449.193,451.177 448.821,451.925 448.517,452.7 C441.755,469.986 439.376,487.844 442.833,506.109 C445.087,518.014 451.359,527.218 464.228,529.693 C475.194,531.801 484.646,528.958 491.796,519.885 C493.521,517.696 494.516,514.852 497.266,513.536 C499.988,513.645 501.66,515.683 503.671,517.067 C519.461,527.93 536.831,531.547 555.67,528.476 C558.646,527.991 561.352,526.71 564.117,525.589 C565.73,524.935 567.308,523.581 569.219,524.871" fill="#FEF8EA"/>
    <path d="M103.189,594.902 C103.193,597.507 101.642,599.576 100.685,602.425 C94.845,597.59 89.933,592.225 85.193,586.706 C59.924,557.287 43.354,523.212 32.93,486.188 C9.901,404.391 8.57,322.573 36.314,241.586 C61.729,167.397 108.035,109.888 176.904,71.295 C177.91,70.731 178.994,70.306 180.042,69.817 C181.172,69.34 181.32,69.927 181.159,70.848 C109.883,126.056 69.765,200.028 51.291,286.935 C45.254,315.334 42.411,344.107 42,373.161 C41.803,387.124 41.843,401.042 43.153,414.946 C38.988,429.731 38.483,444.58 42.116,459.569 C43.95,467.133 47.97,473.521 52.274,479.804 C55.868,489.663 57.905,499.97 60.99,509.985 C69.784,538.533 82.221,565.231 99.952,589.366 C101.218,591.088 102.838,592.633 103.189,594.902" fill="#FEFEFE"/>
    <path d="M621.314,140.712 C633.271,155.755 642.211,172.58 650.347,189.881 C650.066,191.139 649.096,191.808 648.109,192.432 C626.323,206.194 603.343,216.459 576.997,217.245 C563.666,217.643 549.155,214.638 541.239,209.246 C545.226,207.443 549.383,207.742 553.291,207.078 C592.341,200.444 610.577,172.829 610.102,136.802 C610.076,134.893 607.823,132.261 609.834,131.377 C612.242,130.318 613.307,133.76 615.068,135.088 C617.303,136.775 618.726,139.392 621.314,140.712" fill="#FEFEFE"/>
    <path d="M551.125,278.826 C548.923,283.834 545.074,285.006 539.829,284.546 C527.958,283.504 517.122,279.181 506.246,274.861 C504.224,272.293 501.094,271.335 498.51,269.588 C474.016,253.022 457.659,229.878 445.313,203.577 C437.285,186.475 432.198,168.438 429.508,149.738 C429.201,147.604 429.129,145.423 429.119,143.263 C429.095,138.319 431.927,135.096 436.367,134.863 C441.205,134.61 444.484,137.304 445.012,142.554 C445.695,149.344 446.622,156.093 448.248,162.701 C456.461,196.096 471.668,225.586 497.649,248.712 C510.365,260.031 525.287,266.964 542.438,268.763 C549.362,269.489 551.1,271.757 551.125,278.826" fill="#6E4100"/>
    <path d="M181.159,70.848 C180.787,70.504 180.414,70.16 180.042,69.817 C181.113,69.174 182.184,68.532 183.256,67.89 C184.147,70.003 182.296,70.173 181.159,70.848" fill="#EBE3DB"/>
    <path d="M569.219,524.871 C542.812,536.796 519.146,530.861 497.184,513.818 C496.085,512.445 496.595,510.967 496.995,509.555 C502.642,489.646 498.985,470.551 491.997,451.736 C491.326,449.928 489.968,448.218 491.008,446.101 C496.737,438.374 502.598,430.845 510.424,424.963 C536.957,405.021 573.028,412.835 588.779,442.108 C590.888,446.026 592.985,449.95 595.087,453.872 C590.283,478.93 582.137,502.77 569.219,524.871" fill="#FFD5BA"/>
    <path d="M215.606,566.488 C209.908,574.365 203.407,579.927 196.462,585.064 C194.839,586.265 193.622,585.294 192.32,584.754 C173.915,577.12 155.52,569.462 137.136,561.778 C135.875,561.251 133.957,561.163 134.436,558.942 C137.195,546.151 138.073,532.85 144.697,521.107 C157.055,499.199 176.282,487.575 200.721,483.946 C211.51,482.344 222.326,482.619 232.946,485.241 C250.186,489.499 258.374,500.592 257.987,519.252 C257.825,527.1 256.717,534.878 252.852,541.91 C250.28,546.589 246.81,550.552 240.952,550.407 C237.402,550.319 234.324,544.137 234.063,537.675 C234.003,536.179 234.222,534.659 234.043,533.183 C233.523,528.9 231.368,526.079 226.78,525.728 C222.29,525.384 219.32,527.508 218.306,531.775 C216.91,537.65 215.083,543.319 211.635,548.307 C208.472,552.882 206.064,553.019 201.936,549.188 C199.446,546.878 197.814,544.121 196.763,540.835 C195.132,535.738 191.46,533.652 186.892,534.732 C182.465,535.778 180.385,539.37 181.19,544.785 C181.556,547.244 182.606,550.594 180.252,551.608 C177.796,552.667 176.332,549.262 174.76,547.493 C172.665,545.133 170.887,542.495 168.857,540.074 C165.417,535.973 160.603,535.226 156.981,538.122 C153.538,540.875 153.027,545.683 156.067,549.736 C159.956,554.922 163.718,560.252 168.876,564.335 C176.501,570.372 183.479,570.439 191.074,564.516 C192.076,563.733 192.676,562.534 194.324,563.737 C200.524,568.267 207.429,568.944 215.606,566.488" fill="#FEF8EA"/>
    <path d="M102.281,452.876 C106.047,446.663 109.484,440.257 114.287,434.702 C132.183,414.004 161.668,405.792 186.05,422.957 C197.872,431.28 205.62,443.069 210.099,456.884 C211.171,460.192 212.172,463.523 213.205,466.843 C191.938,467.47 172.119,472.573 154.768,485.516 C142.191,494.899 132.936,506.837 126.548,521.859 C123.033,516.165 120.514,510.455 118.069,504.715 C110.948,488.004 105.265,470.85 102.281,452.876" fill="#FFD5BA"/>
    <path d="M103.189,594.902 C97.083,588.724 92.652,581.314 88.129,574.015 C70.733,545.939 59.929,515.241 52.443,483.255 C52.185,482.153 52.322,480.957 52.275,479.805 C63.574,490.234 77.017,494.225 92.152,492.92 C95.079,492.667 96.55,493.462 97.584,496.454 C102.865,511.731 109.655,526.339 118.296,540.02 C120.446,543.424 120.329,546.74 119.888,550.481 C118.54,561.917 113.687,572.105 108.961,582.336 C107.029,586.52 106.039,591.143 103.189,594.902" fill="#C6986A"/>
    <path d="M91.178,476.723 C71.473,478.269 60.292,470.079 56.843,451.418 C54.861,440.689 54.887,429.852 58.982,419.469 C62.277,411.115 68.869,407.527 77.575,408.659 C79.643,408.928 80.306,409.523 80.449,411.645 C81.926,433.584 85.187,455.245 91.178,476.723" fill="#FEF8EA"/>
    <path d="M606.508,476.617 C609.841,463.414 612.921,450.181 614.512,436.672 C615.465,428.587 616.389,420.487 616.915,412.367 C617.116,409.273 618.276,408.431 621.054,408.469 C628.648,408.572 634.469,411.761 637.015,418.967 C642.127,433.436 642.189,448.105 635.962,462.232 C631.251,472.922 619.673,478.215 606.508,476.617" fill="#FEF8EA"/>
    <path d="M370.133,682.384 C370.381,673.438 370.404,673.323 378.369,674.927 C389.476,677.164 400.263,680.338 410.198,686.043 C413.068,687.691 414.152,689.432 413.207,692.771 C409.142,707.142 400.556,717.338 386.536,722.933 C383.296,724.225 382.233,723.174 381.259,720.289 C377.858,710.222 374.307,700.205 370.726,690.201 C369.729,687.417 370.231,684.612 370.133,682.384" fill="#FF7164"/>
    <path d="M328.208,682.409 C329.323,687.283 327.208,691.861 325.524,696.553 C322.665,704.522 319.831,712.502 317.177,720.541 C316.266,723.303 315.298,724.193 312.235,723.004 C297.95,717.462 289.288,707.131 285.255,692.552 C284.398,689.455 285.362,687.793 288.119,686.196 C299.521,679.588 311.992,676.368 324.777,673.991 C327.429,673.498 328.455,674.444 328.233,677.101 C328.096,678.751 328.208,680.423 328.208,682.409" fill="#FF7164"/>
    <path d="M349.849,720.105 C352.286,734.109 354.697,748.008 357.133,761.903 C357.361,763.199 357.321,764.943 358.131,765.668 C362.388,769.484 359.988,773.224 358.447,777.109 C355.208,785.273 352.073,793.479 348.497,802.694 C346.151,796.7 344.138,791.536 342.109,786.377 C340.531,782.364 339.034,778.314 337.309,774.364 C336.222,771.877 335.606,769.888 338.597,768.158 C340.352,767.143 340.896,765.062 341.261,763.01 C343.53,750.262 345.88,737.529 348.197,724.789 C348.49,723.179 348.516,721.482 349.849,720.105" fill="#FEFEFE"/>
    <path d="M191.855,645.322 C194.922,636.502 197.642,628.861 200.214,621.17 C201.05,618.674 202.288,618.706 204.323,619.743 C212.762,624.043 221.506,627.664 231.204,631.453 C217.988,636.111 205.505,640.511 191.855,645.322" fill="#C69869"/>
    <path d="M320.218,658.192 C313.446,659.963 306.891,661.551 300.423,663.442 C298.316,664.058 297.396,663.291 296.411,661.743 C293.934,657.854 293.144,653.455 292.438,649.031 C291.979,646.155 294.06,646.723 295.623,646.881 C301.729,647.497 307.823,648.234 313.931,648.822 C315.253,648.949 316.004,649.403 316.549,650.626 C317.682,653.17 318.971,655.645 320.218,658.192" fill="#FDFDFD"/>
    <path d="M403.925,646.644 C403.681,647.713 403.606,648.197 403.461,648.658 C399.224,662.149 393.076,664.893 380.456,658.926 C380.058,658.737 379.5,658.556 379.352,658.223 C378.778,656.932 383.641,648.928 385.157,648.747 C391.214,648.025 397.281,647.381 403.925,646.644" fill="#FDFDFD"/>
    <path d="M329.317,737.95 C328.059,752.233 328.065,752.218 315.046,747.413 C310.538,745.75 305.925,744.35 301.503,742.488 C299.886,741.808 296.329,742.513 297.877,738.319 C299.43,734.113 301.691,735.976 303.995,736.965 C308.432,738.869 313.087,739.961 317.75,741.149 C322.542,742.369 325.819,740.89 328.357,736.966 C329.245,736.741 329.732,736.906 329.317,737.95" fill="#FF7063"/>
    <path d="M370.016,736.108 C371.976,740.844 375.342,742.289 380.369,741.19 C385.242,740.124 390.123,739.101 394.558,736.842 C397.695,735.244 398.73,737.176 399.764,739.255 C401.244,742.228 398.324,742.109 396.961,742.617 C389.675,745.337 382.294,747.798 374.999,750.493 C372.436,751.44 371.195,751.35 370.955,748.113 C370.675,744.339 369.764,740.612 369.126,736.864 C368.983,736.594 368.889,736.317 369.007,736.141 C369.306,735.695 369.671,735.9 370.016,736.108" fill="#FF7063"/>
    <path d="M334.957,649.906 C345.102,650.535 354.714,650.209 364.468,649.885 C363.996,653.847 361.857,654.936 358.292,654.796 C352.484,654.569 346.66,654.761 340.843,654.726 C337.087,654.703 337.087,654.663 334.957,649.906" fill="#F6EDDD"/>
    <path d="M354.198,677.164 C354.096,680.605 355.357,684.55 349.146,684.153 C345.225,683.902 343.751,682.887 344.281,679.047 C344.436,677.92 344.37,676.72 344.171,675.594 C343.368,671.066 345.798,670.689 349.528,670.595 C353.587,670.492 354.939,671.855 354.214,675.683 C354.124,676.161 354.202,676.671 354.198,677.164" fill="#FF7063"/>
    <path d="M370.016,736.108 C369.72,736.36 369.423,736.612 369.127,736.864 C367.858,735.666 368.013,734.249 368.63,732.141 C369.213,733.811 369.615,734.96 370.016,736.108" fill="#AD542A"/>
    <path d="M329.317,737.95 C328.997,737.622 328.677,737.294 328.357,736.966 C328.679,735.661 329.001,734.356 329.323,733.05 C330.244,732.613 330.57,732.886 330.304,733.87 C330.131,735.268 330.488,736.794 329.317,737.95" fill="#D66248"/>
    <path d="M330.304,733.87 C329.977,733.596 329.649,733.322 329.323,733.049 C329.683,732.219 330.043,731.388 330.51,730.31 C331.609,731.864 331.246,732.9 330.304,733.87" fill="#994E1C"/>
    <path d="M491.008,446.101 C498.205,460.866 501.143,476.55 501.093,492.877 C501.071,500.095 499.292,506.989 497.183,513.819 C489.279,530.498 474.274,533.957 461.82,530.559 C449.188,527.113 443.361,517.481 441.267,505.508 C438.108,487.45 440.495,469.839 447.05,452.749 C448.536,448.874 450.532,445.8 455.287,446.522 C460.059,447.246 460.577,450.876 460.514,454.774 C461.421,456.485 460.536,458.015 459.979,459.546 C455.711,471.268 453.972,483.361 454.573,495.806 C454.792,500.323 455.561,504.731 457.349,508.909 C459.522,513.988 463.389,516.82 468.925,516.933 C474.545,517.047 479.495,515.46 482.428,510.147 C486.176,503.357 487.151,495.808 486.576,488.379 C485.603,475.806 484.332,463.139 477.282,452.038 C476.652,451.046 476.228,449.919 477.273,448.858 C479.837,440.387 484.597,439.431 491.008,446.101" fill="#94ADB4"/>
    <path d="M208.213,406.391 C208.531,399.532 209.622,392.82 212.886,386.695 C214.106,384.407 214.257,382.683 212.801,380.368 C209.814,375.622 208.896,370.196 208.69,364.647 C208.54,360.614 209.968,357.646 214.389,357.452 C218.445,357.274 220.347,359.758 220.683,363.633 C220.84,365.453 220.973,367.283 221.28,369.081 C221.904,372.732 222.689,375.535 227.868,374.162 C232.105,373.039 235.935,375.66 239.006,378.588 C247.462,386.651 255.84,405.545 247.048,421.63 C242.119,430.647 234.73,435.777 227.134,434.792 C218.898,433.724 211.833,426.801 209.487,417.253 C208.616,413.711 208.102,410.076 208.213,406.391" fill="#6E4100"/>
    <path d="M444.178,406.304 C444.442,399.793 445.542,393.084 448.726,386.928 C449.979,384.505 450.223,382.665 448.659,380.165 C445.692,375.421 444.82,369.969 444.659,364.416 C444.548,360.58 445.982,357.768 450.093,357.461 C454.091,357.162 456.221,359.427 456.619,363.367 C456.786,365.019 456.904,366.681 457.154,368.321 C457.75,372.229 458.229,375.639 464.068,374.149 C468.28,373.074 472.12,375.762 475.138,378.751 C483.969,387.496 492.448,406.781 481.904,423.549 C477.629,430.348 472.113,435.747 463.386,434.71 C454.625,433.668 449.203,427.991 446.297,419.877 C444.774,415.626 444.203,411.176 444.178,406.304" fill="#6E4100"/>
    <path d="M477.273,448.858 C482.373,457.124 485.214,466.17 486.694,475.718 C488.23,485.633 488.866,495.521 486.091,505.326 C483.179,515.616 475.96,520.022 465.787,517.991 C459.759,516.787 456.998,512.457 455.154,507.246 C452.31,499.208 452.596,490.824 453.352,482.584 C454.231,472.997 456.191,463.546 460.513,454.775 C461.343,451.883 463.068,450.76 466.247,450.765 C469.955,450.772 473.713,450.163 477.273,448.858" fill="#FEFEFE"/>
    <path d="M224.127,270.155 C220.304,270.366 217.361,269.158 216.859,265.028 C216.337,260.734 218.862,258.528 222.897,258.081 C236.927,256.527 250.228,252.936 262.094,244.892 C265.125,242.837 268.368,243.378 270.381,246.492 C272.485,249.747 271.681,252.874 268.443,255.129 C257.744,262.58 245.664,266.502 232.986,268.837 C230.051,269.378 227.081,269.721 224.127,270.155" fill="#6E4100"/>
    <path d="M347.291,588.869 C342.538,589.085 337.061,589.33 331.584,589.585 C326.829,589.806 323.662,587.538 323.282,583.626 C322.906,579.763 325.555,577.168 330.52,576.675 C342.467,575.489 354.417,575.99 366.363,576.717 C370.328,576.959 372.592,579.306 372.588,583.118 C372.583,587.201 370.107,589.683 365.956,589.644 C359.979,589.589 354.005,589.167 347.291,588.869" fill="#6E4100"/>
    <path d="M357.333,423.68 C357.429,427.75 356.036,430.039 353.176,431.286 C350.068,432.64 347.211,431.903 345.151,429.337 C343.091,426.771 341.145,424.037 339.642,421.121 C337.842,417.628 338.537,414.207 341.949,412.02 C345.297,409.875 348.852,410.28 351.209,413.525 C353.68,416.928 356.819,420.083 357.333,423.68" fill="#6E4300"/>
  </g>
</svg>
